<svg width="261" height="261" viewBox="0 0 261 261" fill="none" xmlns="http://www.w3.org/2000/svg">
<circle cx="110" cy="110" r="95" stroke="black" stroke-width="30"/>
<path d="M235.476 256.689C241.379 262.501 250.876 262.427 256.689 256.524C262.501 250.621 262.427 241.124 256.524 235.312L235.476 256.689ZM170.476 192.689L235.476 256.689L256.524 235.312L191.524 171.311L170.476 192.689Z" fill="black"/>
<path d="M127 75L162 110" stroke="black" stroke-width="20" stroke-linecap="round"/>
<path d="M119.788 138.073C115.882 141.978 115.946 148.245 119.929 152.071C123.912 155.897 130.307 155.832 134.212 151.927L119.788 138.073ZM134.212 151.927L169.212 116.927L154.788 103.073L119.788 138.073L134.212 151.927Z" fill="black"/>
<path d="M92 145L57 110" stroke="black" stroke-width="20" stroke-linecap="round"/>
<path d="M99.2124 81.9268C103.118 78.0216 103.054 71.7545 99.0711 67.9289C95.0878 64.1034 88.6928 64.1679 84.7876 68.0732L99.2124 81.9268ZM84.7876 68.0732L49.7876 103.073L64.2124 116.927L99.2124 81.9268L84.7876 68.0732Z" fill="black"/>
</svg>
